<?xml version="1.0" standalone="no"?><!DOCTYPE svg PUBLIC "-//W3C//DTD SVG 1.1//EN" "http://www.w3.org/Graphics/SVG/1.1/DTD/svg11.dtd"><svg t="1700731141267" class="icon" viewBox="0 0 2181 1024" version="1.1" xmlns="http://www.w3.org/2000/svg" p-id="4541" xmlns:xlink="http://www.w3.org/1999/xlink" width="425.9765625" height="200"><path d="M1443.483826 89.043478C1531.458783 89.043478 1602.782609 159.098435 1602.782609 245.537391c0 50.309565-24.197565 95.120696-61.796174 123.748174 38.800696 63.421217 59.792696 134.989913 59.792695 209.118609 0 119.696696-47.126261 217.822609-137.349565 284.115478-88.731826 65.224348-215.707826 97.235478-373.381565 94.541913-158.786783-2.693565-284.204522-35.350261-371.556174-98.125913-90.757565-65.224348-137.705739-161.101913-137.705739-280.531478 0-73.661217 20.72487-145.764174 58.768696-209.92C602.579478 339.878957 578.782609 295.446261 578.782609 245.537391 578.782609 159.098435 650.106435 89.043478 738.081391 89.043478a159.699478 159.699478 0 0 1 139.308522 80.584348c65.602783-25.822609 138.173217-38.822957 214.372174-37.13113 74.863304 1.691826 145.897739 16.027826 210.053565 41.405217A159.610435 159.610435 0 0 1 1443.483826 89.043478z m-693.158956 206.669913c-83.233391 77.04487-130.582261 180.936348-130.582261 287.254261 0 105.583304 38.221913 185.321739 113.775304 240.818087 79.070609 58.056348 199.769043 90.156522 358.088348 92.91687 155.648 2.693565 276.301913-28.360348 356.018087-88.219826 75.375304-56.631652 114.198261-139.197217 114.198261-245.537392 0-105.516522-46.703304-205.979826-130.226087-281.711304-86.77287-78.714435-206.981565-125.284174-341.904696-128.378435-132.630261-3.027478-252.037565 41.984-339.366956 122.857739z m412.271304 258.137044c15.961043 4.452174 25.199304 20.791652 20.702609 36.463304-9.082435 31.49913-43.230609 53.359304-83.611826 53.359304-39.290435 0-70.277565-20.390957-82.587827-50.354086a29.384348 29.384348 0 0 1 16.606609-38.444522 30.163478 30.163478 0 0 1 38.867478 15.894261l0.178087 0.445217c3.116522 7.524174 12.02087 13.401043 26.935653 13.401044 8.592696 0 15.60487-2.003478 20.613565-5.186783a17.786435 17.786435 0 0 0 4.296348-3.717565 9.416348 9.416348 0 0 0 0.734608-1.024l0.111305-0.222609 0.066782-0.155826 0.044522-0.111304a30.052174 30.052174 0 0 1 37.042087-20.346435z m190.842435-192.378435c59.436522 47.148522 79.471304 129.157565 50.287304 171.408696-29.184 42.22887-103.735652 41.917217-166.555826-0.667826-62.775652-42.629565-84.012522-127.443478-54.828522-169.672348 29.184-42.25113 99.394783-57.967304 171.097044-1.068522z m-352.612174 1.068522c29.161739 42.22887 7.969391 127.042783-54.828522 169.650087-62.797913 42.607304-137.349565 42.918957-166.555826 0.667826-29.184-42.22887-9.149217-124.215652 50.309565-171.408696 71.68-56.876522 141.890783-41.160348 171.074783 1.090783z" fill="#202429" p-id="4542"></path></svg>