<svg version="1.1" xmlns="http://www.w3.org/2000/svg" height="1024" width="1024" viewBox="0 0 1024 1024"><path d="M615.1 297.5c-7.3 0-13.4-5.8-13.7-13.2-2.2-52.3-60.2-125-84-152.8-23.8 27.7-81.8 100.5-84 152.8-0.3 7.6-6.6 13.4-14.3 13.1-7.6-0.3-13.5-6.7-13.1-14.3 3.2-75.7 97.4-177.5 101.4-181.7 5.2-5.6 14.9-5.6 20.1 0 4 4.3 98.2 106 101.4 181.7 0.3 7.6-5.6 14-13.1 14.3-0.3 0.1-0.5 0.1-0.7 0.1z"></path><path d="M360.4 553.2c-6.8 0-12.7-5.1-13.6-12-11.5-91-7.6-123-3.4-156.7 2-16.1 4-32.7 4.5-57.1 1.3-66.4-2.3-82.4-2.7-83.9-1.8-5.2-0.3-11 3.9-14.7 4.4-3.9 10.7-4.5 15.8-1.7 7.2 4 176.6 100.5 189.1 290.6 0.5 7.6-5.2 14.1-12.8 14.6-7.5 0.5-14.1-5.2-14.6-12.8-8.9-134.3-106-219.8-151.6-252.9 0.6 14 0.9 33.6 0.4 61.3-0.5 25.7-2.6 43.1-4.7 59.9-4.1 33.4-7.7 62.3 3.4 149.9 1 7.5-4.4 14.4-11.9 15.4-0.7 0-1.3 0.1-1.8 0.1z"></path><path d="M661.8 536.4c-1.2 0-2.3-0.1-3.5-0.5-7.3-1.9-11.7-9.4-9.8-16.8 0.2-0.8 20.9-81.7 2.1-170.3-5.3-25-9.2-46.6-11.4-64.3-35.8 44-96.9 99.6-112.6 113.7-5.7 5.1-14.3 4.6-19.4-1-5.1-5.6-4.6-14.3 1-19.4 50-44.8 121.8-116.6 129.7-139.9 0.5-2.2 1.1-4.1 1.9-5.5 3.3-6 10.5-8.6 16.9-6.2 6.4 2.4 10 9.1 8.6 15.8-0.2 0.9-0.4 1.8-0.7 2.7-0.7 4.5-2.4 26.5 13 98.4 20.3 95.3-1.4 179.5-2.4 183.1-1.8 6.1-7.4 10.2-13.4 10.2z m2.8-292.6z"></path><path d="M441.3 926.8c-14.5 0-27.3-0.4-37.4-1.3-44.5-3.8-67.1-14.3-71.1-33l-0.3-2.1c-8.8-155.6-58.8-385-59.3-387.3-1.2-5.4 1-10.9 5.4-14.1 4.5-3.2 10.4-3.4 15.1-0.6 16.3 9.8 136.1 82.7 195.4 135 32.4-25.9 151.8-116.8 246.4-127.7 4.5-0.5 8.9 1.2 11.9 4.5s4.1 7.9 3.1 12.3c-0.6 2.7-64.7 275.3-65.7 366.6 0 1.7-0.4 3.4-1 5-11.1 27.8-157.1 42.7-242.5 42.7z m-81.4-39.9c1 0.8 6.4 5.4 27.3 8.9 78.3 13 242.4-9 270.4-23.2 3-84.3 46.9-281.8 61.6-346.2-81 18.6-178.4 91.4-210 116.3 3.9 4.4 7.1 8.5 9.3 12.2 3.9 6.5 1.8 15-4.7 18.9-6.5 3.9-15 1.8-18.9-4.7-18.1-30.2-124.9-101-188.1-140.5 13.9 68.6 45.9 235.3 53.1 358.3z m300.4-16z"></path></svg>